# xmcd CD database file
#
# Track frame offsets:
#	150
#	15695
#	30159
#	45607
#	60619
#	78554
#	88685
#	98376
#	112915
#	131092
#	155390
#
# Disc length: 2263 seconds
#
# Revision: 0
# Processed by: cddbd v1.5.2PL0 Copyright (c) Steve Scherf et al.
# Submitted via: CDex 1.70beta2
#
DISCID=7708d50b
DTITLE=Leana Sealy - Undecided
DYEAR=2009
DGENRE=Jazz
TTITLE0=CallTthe Police
TTITLE1=Cheek To Cheek
TTITLE2=So Waht
TTITLE3=Night In Tunesia
TTITLE4=Love For Sale
TTITLE5=No More Blues
TTITLE6=Seven Steps To Heaven
TTITLE7=Scrapple From The Apple
TTITLE8=Lush Life
TTITLE9=Man Who Sold The World
TTITLE10=Uninvited
EXTD=
EXTT0=
EXTT1=
EXTT2=
EXTT3=
EXTT4=
EXTT5=
EXTT6=
EXTT7=
EXTT8=
EXTT9=
EXTT10=
PLAYORDER=
